<svg xmlns="http://www.w3.org/2000/svg" viewBox="0 0 64 64">
  <defs>
    <radialGradient id="candyPink" cx="36%" cy="24%" r="74%">
      <stop offset="0" stop-color="#ffd4ff"/>
      <stop offset="0.44" stop-color="#f68be9"/>
      <stop offset="0.72" stop-color="#b88cff"/>
      <stop offset="1" stop-color="#74e8f5"/>
    </radialGradient>
    <linearGradient id="stick" x1="29" x2="36" y1="38" y2="62" gradientUnits="userSpaceOnUse">
      <stop offset="0" stop-color="#f3c07f"/>
      <stop offset="0.54" stop-color="#b86b2d"/>
      <stop offset="1" stop-color="#f2bf80"/>
    </linearGradient>
    <filter id="softShadow" x="-20%" y="-20%" width="140%" height="140%">
      <feDropShadow dx="0" dy="2" stdDeviation="1.8" flood-color="#4d2d21" flood-opacity="0.18"/>
    </filter>
  </defs>
  <rect width="64" height="64" rx="14" fill="#fffaf0"/>
  <path d="M30 40h7l-1.2 19.4c-.1 1.6-1.4 2.6-3.3 2.6s-3.1-1-3.2-2.6L28 40z" fill="url(#stick)" stroke="#8e5529" stroke-width="1.3"/>
  <g filter="url(#softShadow)">
    <path
      d="M18.2 43.2c-6.2-.8-10-4.7-10-10.2 0-4.2 2.6-7.8 6.5-9.2-.1-.4-.1-.8-.1-1.2 0-5.7 4.9-10.1 10.9-9.4C28 8 33.3 4.8 39.2 6c5.6 1.1 9.2 5.8 8.9 11.2 5.1.7 8.9 4.9 8.9 10 0 3.8-2.1 7.1-5.3 8.9.4 5.9-4.5 10.7-10.7 10.4-2.3 4.2-7.3 6.6-12.3 5.4-3.1-.7-5.6-2.7-7-5.3-1.2.4-2.4.5-3.5.6z"
      fill="url(#candyPink)"
      stroke="#f6b3f0"
      stroke-width="1.15"
    />
    <path d="M15 34.2c8.5 3.7 18.7 2.9 26.4-2.2 4.8-3.2 7.6-7.8 8.5-12.3" fill="none" stroke="#ffffff" stroke-width="4.2" stroke-linecap="round" opacity="0.18"/>
    <path d="M18 24.5c7.6-3.6 18.8-2.6 27.4 2.6" fill="none" stroke="#ffffff" stroke-width="3.6" stroke-linecap="round" opacity="0.16"/>
  </g>
</svg>
